<?xml version="1.0" encoding="UTF-8" standalone="no"?>
<!-- Created with Inkscape (http://www.inkscape.org/) -->

<svg
   width="35.078739"
   height="35.078739"
   viewBox="0 0 35.078739 35.078739"
   version="1.1"
   id="svg5"
   xml:space="preserve"
   xmlns="http://www.w3.org/2000/svg"
   xmlns:svg="http://www.w3.org/2000/svg"><defs
     id="defs2" /><g
     id="layer1"><path
       id="path470"
       style="font-variation-settings:'wght' 600;fill:#000000;fill-opacity:1;stroke-width:1.50811;stroke-linecap:round;stroke-linejoin:round"
       d="M 16,0 A 15.999999,15.999999 0 0 0 0,16 15.999999,15.999999 0 0 0 16,32 15.999999,15.999999 0 0 0 32,16 15.999999,15.999999 0 0 0 16,0 Z m -0.259767,3.6054687 0.771484,0.054687 0.615234,0.060547 0.390625,0.082031 0.388672,0.082031 0.126954,0.2382803 0.126955,0.2363263 -0.04102,1.0371126 -0.04102,1.0371095 -0.558594,1.1171875 -0.556641,1.1171875 -0.541015,0.6132812 -0.541016,0.6132813 v 0.05664 0.05664 l 2.345703,0.08594 2.345703,0.08789 0.416016,0.21289 0.414063,0.212889 0.550781,0.574219 0.548828,0.574219 0.429687,0.652344 0.431641,0.65039 v 0.691406 0.689454 l -0.191407,0.380859 -0.19336,0.380859 -2.310547,2.328125 -2.310547,2.328125 0.542969,0.07422 0.542968,0.07422 0.451172,0.230468 0.451172,0.228514 0.476562,0.519531 0.478516,0.517578 0.746094,1.214843 0.746093,1.212891 0.539063,0.601563 0.541016,0.601562 0.111329,0.496094 0.11328,0.498047 0.05859,0.496094 0.06055,0.49414 -0.259767,0.138671 -0.259767,0.138671 -1.265612,-0.06054 -1.265625,-0.0625 -0.474609,-0.08008 -0.476563,-0.08203 -0.154296,-0.125 -0.154297,-0.125 -0.476563,-0.814454 -0.476562,-0.814453 -1.123047,-1.310546 -1.123047,-1.310547 -0.183594,-0.279296 -0.18164,-0.279296 -0.925782,0.96875 -0.925781,0.970703 -0.855469,0.949219 -0.855468,0.951172 -0.371094,0.613281 -0.371094,0.613281 -0.423828,0.08008 -0.423828,0.08203 -1.1894533,0.04297 -1.1874999,0.04102 -0.3554688,-0.128906 -0.3574219,-0.128907 -0.1582031,-0.125 -0.1582031,-0.126953 0.064453,-0.421875 0.066406,-0.421875 0.078125,-0.476562 0.078125,-0.47461 0.2460938,-0.355468 0.2441404,-0.357422 0.765625,-0.949219 0.7656249,-0.951172 2.271484,-2.220703 2.269531,-2.220703 -0.949219,-0.0059 -0.951171,-0.0078 -0.47461,-0.130859 -0.474609,-0.128907 -1.628906,-1.626953 -1.6289059,-1.625 -0.1835939,-0.4375 -0.1816407,-0.4375 V 12.798828 11.99414 L 8.4999997,11.273437 8.8417968,10.552734 9.876953,9.6113278 10.912109,8.6679687 12.353515,6.7675781 13.794922,4.8671875 14.259765,4.3613279 14.722656,3.8574217 Z m -0.869139,7.3554683 -0.654297,0.507813 -0.652344,0.507812 -0.376951,0.34961 -0.376952,0.34961 0.115234,0.251955 0.117189,0.253905 0.716797,0.355468 0.716797,0.357423 0.390624,0.376951 0.388672,0.376951 0.312499,0.625 0.312499,0.626953 0.0059,0.421875 0.0039,0.421875 0.89845,-0.949216 0.896484,-0.951172 0.230469,-0.320311 0.230469,-0.322265 -0.390625,-0.201173 -0.390625,-0.199219 -0.984375,-0.646485 -0.982422,-0.646484 -0.199218,-0.302733 -0.197266,-0.300782 -0.06641,-0.472656 z" /></g></svg>
